<mxfile host="65bd71144e">
    <diagram id="HIP3nbAZw_EuaXWnEj3U" name="Page-1">
        <mxGraphModel dx="972" dy="575" grid="1" gridSize="10" guides="1" tooltips="1" connect="1" arrows="1" fold="1" page="1" pageScale="1" pageWidth="850" pageHeight="1100" math="0" shadow="0">
            <root>
                <mxCell id="0"/>
                <mxCell id="1" parent="0"/>
                <mxCell id="7" value="" style="swimlane;whiteSpace=wrap;html=1;" parent="1" vertex="1">
                    <mxGeometry x="40" y="40" width="760" height="480" as="geometry"/>
                </mxCell>
                <mxCell id="8" value="&lt;font style=&quot;font-size: 30px;&quot;&gt;Volume of a Sphere, in JS&lt;/font&gt;" style="text;html=1;align=center;verticalAlign=middle;resizable=0;points=[];autosize=1;strokeColor=none;fillColor=none;" vertex="1" parent="7">
                    <mxGeometry x="150" y="35" width="370" height="50" as="geometry"/>
                </mxCell>
                <mxCell id="9" value="&lt;font style=&quot;font-size: 24px;&quot;&gt;Formula: V =&lt;/font&gt;" style="text;html=1;align=center;verticalAlign=middle;resizable=0;points=[];autosize=1;strokeColor=none;fillColor=none;" vertex="1" parent="7">
                    <mxGeometry x="30" y="114" width="160" height="40" as="geometry"/>
                </mxCell>
                <mxCell id="10" value="&lt;font style=&quot;font-size: 24px;&quot;&gt;Ï€r&lt;span style=&quot;color: rgb(63, 63, 63);&quot;&gt;&lt;sup style=&quot;&quot;&gt;3&lt;/sup&gt;&lt;/span&gt;&lt;/font&gt;" style="text;html=1;align=center;verticalAlign=middle;resizable=0;points=[];autosize=1;strokeColor=none;fillColor=none;" vertex="1" parent="7">
                    <mxGeometry x="220" y="105" width="60" height="50" as="geometry"/>
                </mxCell>
                <mxCell id="11" value="&lt;span style=&quot;font-size: 24px;&quot;&gt;4&lt;/span&gt;" style="text;html=1;align=center;verticalAlign=middle;resizable=0;points=[];autosize=1;strokeColor=none;fillColor=none;" vertex="1" parent="7">
                    <mxGeometry x="184" y="99" width="40" height="40" as="geometry"/>
                </mxCell>
                <mxCell id="12" value="" style="endArrow=none;html=1;" edge="1" parent="7">
                    <mxGeometry width="50" height="50" relative="1" as="geometry">
                        <mxPoint x="185" y="133" as="sourcePoint"/>
                        <mxPoint x="225" y="133" as="targetPoint"/>
                    </mxGeometry>
                </mxCell>
                <mxCell id="14" value="" style="shape=image;verticalLabelPosition=bottom;labelBackgroundColor=default;verticalAlign=top;aspect=fixed;imageAspect=0;image=data:image/png,iVBORw0KGgoAAAANSUhEUgAAAKAAAACdCAYAAAAzK3NeAAAAAXNSR0IArs4c6QAAF8JJREFUeF7tnflvVUUUxw/FtrJoFVS0oIDiAopsBVcggCIiRoJhURQlGhKjxl9M/BtM/MWoMSEacCEKBoIRFQFFQC3asrlQFRQKbRUrILJZCsV8pg5e2vf67vru3PvmJJP3XnuXmTPf2c6c851Op0+fPi1WrAZi0kAnC8CYNG9fqzRgAWiBEKsGLABjVb99uQWgxUCsGrAAjFX99uUWgBYDsWrAAjBW9duXWwCKCKbQ/fv3y4EDB+TQoUPy999/y+HDh+Xo0aPyzz//qNTc3KxSS0uLur5Tp05SVFQkxcXFKp177rkqdevWTc477zw5//zzpaysTHr06CE9e/ZU11tpr4GCAyDgqa+vl99++01+//13+eOPP6SxsVGBBLAAGsADiABTly5dpLS0VEpKShTQAB1g4jmAEVCeOHFCmpqa5Pjx4wq0gBcQA2ZADbgvvvhiueSSS+TSSy+Vyy67THr37m1BWSh2QAC3e/du2bt3r+zZs0d69eol5eXlCgyAAnAArKgEoAJywA7oGxoaZN++fXLFFVfI5ZdfLv369VOALERJbQ/4yy+/yI4dO2Tnzp3StWtXVcl9+/ZVFU5vFrfQa9IgamtrVeM4duyYDBgwQK6++mq56qqr4s5e3t6fKgDW1dXJ9u3b5ccff1RDKpVJuvDCC/OmUL8vOnjwoGowJIbs6667TgYNGiR9+vTx+8hE3Jd4AJ48eVK2bdsm3333nfCdShs4cGAiQJcNIYCxpqZGNaZzzjlHBg8eLEOGDFHf0yaJBeBff/0lW7Zskc2bN6uhiwpimE2bMDzTwJhKDB8+XIYNGyYXXHBBaoqZOAAyPFVVVcn333+vKoSUpgrJhiwaHI2NdMMNN8jIkSPVNCPpkhgAYtaorKxUwLvpppukoqJC2d0KTbBJVldXy9dff62mG7fddpsyGyVVjAcg9rYvvvhCvvrqKwW8m2++uSCB1xZg2BhXrlypVtC33nqr3H777Ym0KxoNQCbh69atU/YyWnohDLVue7Jdu3aphoih/Msvv1T2zTFjxsj111/v9hFGXGckAFkFrl27Vu0ojB07NpWLiyC1z27Lr7/+quaCeouPnpDGyg7OuHHjEmMFMA6ATLI//fRT1eMxtFhprwGM7ACNXZy2wlSFHnHChAlqgWa6GANAWvWqVavUjgDKY5vMSnsNMPdja5EFSDZhu49GzA7QxIkT1Z62qWIEALFxMaHGljd69GhTdWVEvn766Se1d43jRC7ZsGGDsiFOmjRJ2UpNlNgByHCBQdlkJZlScXjW/Pnnn3LNNde4zpJu3BiwmdaYJrEBEPPKihUr1JA7efJkNaex0rEGsArgNYPLmBdhMffRRx+pIXnKlClGmWtiASBG5ffff1+5RTFHsZJbA7hyAaQgnjLMsXEDu++++4wxXucdgDiCLl++XO1pYlS2klsDjBY4WwC+oAuKjRs3qinP1KlTlWNs3JJXAGI8XbZsmer18PCw4k4DNFr8B/FnDEMAM73htGnTpH///mE80vcz8gZA/NyWLl2qCu1lEu27ZCm5EZd/9r9xMQtz7/vnn39WncH999+vfCbjkrwAkMIy7E6fPj32FheXov2+F69pdjuicExlRHrvvffUcBxXpxA5ALHa0/PNmDHDbql5RCGeLzimMl2JyhmVLbwlS5aonjDIAsdj0c5cHikA2SB/99131bBrqiHUr+LycR/gYNiNelcIWyHD8axZs5TjRz4lMgASBfbOO+/InXfeqeYvVrxp4MiRI8rhgN4vHzHF9LSrV6+WBx54QO205EsiASBDx6JFi2To0KEyYsSIfJUlVe+hV8LgnE8wbNq0SbZu3SqzZ88OdcHTUcVEAkAmtnhq4EplxbsG3DgceH+quztw6cLozYIxHxI6ANesWaPYAbC2W/GnARwOaMBxhZOyS4XB+4477vBXAA93hQpAum+s7HPmzJHOnTt7yIa9VGuAoCscDq699trYlHLq1Cl588031W4V06goJTQAsse4YMECefTRRyNftUWpkLif/cMPPyj2hrgDjfApXLhwocydO1ft2UcloQHwjTfekBtvvFG1Giv+NBCGw4G/N2e+ixENf8JHHnkkzMee9axQAEj8BvM+XH2s+NMABEZsuWEvxW3KFMFljvkgcSZRSGAAsp2Dr9ljjz2Wt6V7FIqI9ZmnRQ4fOSwEnzP8miSY1F5//XXlsxmF40JgAJI5PG0h07GSTg1A9oTnOp1M2BIIgOvXr1dEjHboDbtazHseQzELI2KPwxTfAGTC/NZbb8m8efOsO32YNWLos/DGnj9/vjz88MMZw0H9Zts3APFwYb4yatQov++29yVMA998840i1cRzJizxBUD8+5gTYCOy4lUDdVKzaZ8c47ZzyqR/H5E9uw/JKRHpXNZfhg7IHW7p9Y1hXo+tlzl/WP6DvgCIzQ+iILvw8F+1B3ZulV2HTrWCsGez7Np3TLr2GiEDDSdEZUECM1dYtkHPACSeAHsVbjtW/GugrmaT7JNeMsJ0xGUoIm528NKEEdfjGYCYXcaPHx+JTch/dSbtzgOyc9suOdLN/CE3k2ax/X722WehmGU8AZCej73KmTNnJq3Gzcrv/p2ydfcR6d5vqAxIKMnp4sWLFRUcPWEQ8QRA5n5MQK17fRCVi0hdjWzaJ9JrxEAxfMqXtaBEOcLEFXQu6BqABBfBVBr0hQGrLhW3q/nfiTLpP2SAmL3m7VjddEgwswYJZnINQOx+mo0+FSiwhQisAc3eH8Qu6AqAsDKx6/HMM88EzrR9QLo08OKLL6rdETd0cZlK7gqA7PlyCAyrXyv+NKBP2PR3t7l3sRomZtnvHrErAL766qsqtjdKz1hzVRxOztjC6t69e2xxHuGUov1T8IQnpviJJ57w9YqcAMTmA9MmcR5W/GmAY1wJNMJkERXDgb+chXMX8SMw2/rxF8wJwI8//lidyGOdDvxXFo2Y4xSiZjjwn8Ngd+KkQDDV3Xff7flBOQHIJJNAI6+snJ5zktIbYDiAYiOowdZk9RDHTACTn0VqhwBEcQy/rHKs+NMADAccsHPRRRf5e0BC7sJKwjDs9cDIDgEI1T9Dhz2vwx8KiPGAXLIQuHHYFWGuyxEbXqRDAL722mtyzz33GEHl6qVQplyL6xKWg7gYDvKpBxrahx9+KI8//rin12YFIK337bfflqeeesrTA+3FrRpgUo4BP0720XzXxcsvvywPPfSQpzP9sgIQvz/owSzHi79qxGsIrr1COn4CTpkrr7zSk59gVgBifoEgx9KreQcgxlkC9amMQhLo3QhW82KOyQpAHE+Z/yXVdgXTANuHJL5DuKOT/s32GN/1bzkt0nK6Rfi7/p8GEL+d4txag0BSJ67B9AKbQElJibqlqKhIkTVxTVFRZ+ncufU3Sf8PAzW/k2yohk+GeaCX+OGMAGxqapKXXnpJnn32WaMaMEDhuAKY40l8B1T6N2DjO39DnJWqK9r5yXdnagVI0RkwtQWWk6nUCUj9nU+YrcgHxJLkVwOZPDm/a9DrBsIn1/CpgUj+i4uLVeI7gNa/9adRFSQiL7zwgjz99NNSWlrqKmsZAQi3M0SFcdj/oIIAWDQCnfitwUYltK0IXVH6U/csrjQQ4kXkEa9xjM669/PzeN2odA+uG5ZudM7Gx3uobK0XvusUR2+KPRBiUrdc0xkByFhOS77rrrv86M/VPdiMSADOmbQiIefWitWfcSjUVWH+u4iGC/g5zy0fQo9KI9UN1tlw0Sl5QXfYcknolETvGZV88sknyujudu2QEYBeH5KrMACNSTkHE/KdT4DmVIpWDkNgEkU7HBApZgo5Jz0lQNQNHb3zm4YMA5czhdW4q6urlQnKbeeVEYAcrcA5bl63VTRwmITrBPCoECblJF3opAItW+PA4YCyJcFljV4TMJKoH+qKDgB3McxGzgWU186A7VvOo+PIBzeSEYD4/xH3yx6mG6Hrh6SIBIcIXTwFIVGosFqXm7zEcQ1lRvFhxMnGkX/eCRgBImWhHgEkZEQkL7ZMNjCIG3brH9gOgMwrnn/+eXnuuec6PJ+C7v3gwYOK045WhLcMiQxHOceIq4I6ei8RYmy3pcnhgDrFy4X6ZVFE3dIh5aIOdosfrc92AKQF4GD45JNPZtQ5rYMxHvChdGIBEueqpcIiFTtLKzVGgOi0QnA4YMimvtlaRKhzfESzdTSvvPKKcmB203O2A2BDQ4M6Madt+CUv5/QjWgM2LjKQ7HncfyRBXYPRY+BwgLHe7XTFxB7cS57oGcEBeGCnDCy0tfkRrskJWeXl5Tkf3Q6AxP9u3rz5zEEl9Ih4OtC1MsFOj6JbASgBCIEwVVERYTFF5awtgy5gCsa2G9uOHHxNI9SGeg4qGj58uKt44XYAZBMdJ4R7771X6A1BO0eF0uOlStQw3CRlAegxMDpziLSboSZVunMUBiDW1dUpeyR8kaygP/jgA7UPDnVHLmkHQHo/WjbUa9iMeFAaV7GKHu1od9/zv0J1OMgGKDqq+vp6RV6AcyoLMnrBXNIOgHC/8TCGlVQNLc6Fh9aKj/kf0xHAp+fCbrecclVEGv7PdIRRE/1gfoNDMpe0AyDMpygZTxh2KtIgmgzyDAGkYqc6JOKRkRSzBDEeTqHFJ84KEGGl1tbWyvbt25W5BiKrXNIOgES6s+T2uwuS64X5+P9Z+5CZwJaFHo09cCvBNQAIWSFDXJRL2gEQR1QWIdnsgLkeaNz/My02fNKj2R4wd+0yQhDMxgLEFwAZgisrK1UscBos+63Db+lZXHxB6HH1HJCqwCyFCcLK/xrg1CwaKnNjX0MwixBsgciDDz6YfN226QHPkIP7WIAkXxnRloC5H3HkWE6YA/pahGgzDIZn5oIEJSV9MaJ6vP923jqX9ZLuR/fJoZNURudAdsBoqzNZT+dkzc8//1ydIVJTU+PfDOM0RMOIin8XJ2enmVoiWVVtVm7ZmmPOR2elt98CGaLbbsWxomFeiN0LH8FCinM1q6rNyg3Aq6qqEoiJYM4gad+AQFtx2ZwR6BkZntl64Rj3IUOGGOP5a1bVpDs34IPhlm1IzF3sdrRlfgjkjJDLHQsTDS/HCwTOE5JlzU836Bhe4TdkkUE0nz6khn3fTBLIHcutQyHes2SKc+NoFYAQtnRICrNlLN3VlK7Ssa9LZ4NdD29ppl5szebaoHCLH62tUFzycVIlJoLEnBHvEOxAJDwkkr6KThe0MpeGoPK6vXVSu6dW1SFOp4CNDgWPH7cS2CWfFwUNSsI9Ryd6RxwWMdhqvzF8xwrNbd9tBebjOoZUHAYwqpMa6hukR88eyu1Op1yu99nyGUpQEmGZ+P9VVFSEog+8aygorYyC48hIL4k3LbstJN5HMiWkMZSCx/wQpkmET+BeR2r8o1Ea/2xUIxK7OHQEejcnrFHKa0x5bIHpSiGNjUoxKEnTmWkmeVZWeF+TdLATYY9W/tcApjG2vZgCMfTxnd5NJ2KvdfyGbug0+ij16DWm3DhqDnzKUKZOKFUrGa9bek6GB4CqE63XGXfM7yQ70eIIjJ3NGdCv43d16CTWCvSBLnQD1Q1WN96wejUvjT4Uag5TyYmwQaJ4XQl86uBqzbyg2ReIT9BsC06aD82l4iT5AazZiIw0eRGV4AzCchISOUmI2jJxaX4X8q45XjTXjZP/xklPwpxZBfB36Spdu3U907hocDQ0HW/Nb9MkFHIiCpV0ejYqXFNSOEmONJdK84lmaT7ZyrKlQaLZqfhUtG2nWs7QtfHbKQBQAxKw/0+/1kq9xv8Auf7UDFd8OomEdINw0pQ4WbhMA1hH+QmNno2XWILKJFW9GXkNlaDSUvSaUalJykWoFL2WpDxJVW9GXkMlKadI9pgGMyo2CbkI/ZgGCm0PqklC1ZuRx0gOqrFHdZlRuUnIRSRHdVFwe1hhEqo/3jxGdlihNsfY41rjrWDT3x7pca32wGrTqz/+/EV6YDXFg7J32rRpieA/jr86CisHeDctW7bMNSVvW+3kPLCaG9avX6+2q8aPH19Y2rWlzakBqFzYRx8zZkzOazNd4AqAeKiwyvFzIravXNmbEqMBFqkcaITblx9xBUAevHTpUhX3QTScFasBNLBt2zYVM0Iwul9xDUDihQlUb8sd7ffF9r7ka4DwSwiICEbzK64ByAt4IQHINjjdr7rTcx89H4QFQTskTwAkHpgA9ZkzZ6ZHk7YkvjSwePFiRcEWlLLFEwDJKY6qrIYJ17NSmBrANszq18u5wNk05RmA+AnSE3KUl5XC1ABHcWl2hKAa8AxAPReE+w0mfSuFpQEoWeCQDDr301rzBUDoOJiAzp07t7C0b0srCxYsUMynYZ2g4AuA1AN2QWg3Ro0aZaulQDSA08HevXsD2f3aqso3AGE3YHdk3rx5BX1SUIFgT4XDzp8/X+16wIAflvgGIBlgj5io/ClTpoSVH/scQzWwYsUKFQTvd883tFVw2wdhlmFOYBckhiInhGyx8GDOH4bZJbQhWD8ImxDU/GQOBgIr6dIAjA10MpMnT47E9htoCNaqXrt2reIysUNxusBHaRh6oQMZN25cJIULBYDaNoinDPzRVtKhgS1btsi3334bms0vk1ZCAyCesdiIOGEJ3jkrydYAPC8LFy5Utl44BKOS0ABIBmFPp9XMmTPHEk1GVWN5eC7kTMR5DBs2LPIRLVQAops1a9ao+SAnLFlJpgbgeGHexwFFUUvoACTDHFSCsXLs2LFR598+P2QNrFu3TlEoT58+PeQnZ35cJABk6b5o0SLVfZ91dm9eimRf4lcD0KsxjZo9e3beTGqRABAFwP+M2w7nh3GYjRWzNcABg6tXr1ZudvBI50siAyAF2LNnjzrygZhie5pSvqrU+3twrye2d9asWepsl3xKpACkIAQz4TkzY8aMnKfs5LPg9l2tGoCAasmSJcrDJUhwkV99Rg5AMob/4PLly9XE1rry+62q8O9jG5UF49SpU0Pz7/Oay7wAkEzt2LFD9YQMx2E5M3otrL3+fw3QKTDs0vPFGeWYNwBSdFochZ44caIMHjzY4iEmDRDXs2rVKtUZxD0i5RWA6BsqV4ZjrOwcgG0lvxrYuHGj2q1i2OXsvrgl7wCkwDixYm1nj5He0Ep+NECvx549u1R+DyMMO6exAJBCcNALrj6cbISvGaf/WIlGA7jT47PJ6Uu4zJl0EE5sANSqxtOWIWHSpEnWVhgB/rDxrVy5Uk158Fw3TWIHIArRSsKfcPTo0abpKLH52bBhg2KwMrlxGwFAahgPGuYoDMkTJkywPoUBYI8vH0dsMOQyx8azxVQxBoBaQZs3b1bKY7iAicuKNw1wXgfTGhrx8OHDvd0cw9XGARAdcOAycSZMnnHp6tevXwyqSdYr2VLDlYrFHPEbnBmcBDESgFpxUMERe8wGOT0iBzJbOVsDnOlHj4fjB4110KBBiVKR0QDU5hqYWRlaIETCeG3DP0XwucSoDFEQUxWYSk0yr7htBcYDUBcE43VlZaWihgOIFRUVBQlEgFddXa2AB0XaLbfcYoxR2S3onNclBoA60/v375eqqioFRCbZpEIYmhlqWaCRAN7IkSOFE6ySLokDoFY4FYIBmwrR7P1pXKywuNBs9DQ2DMppanCJBaAGIgfoUEF4ePCdSTghAElZBWbqwbAC4CK/fft2dQgMnkMY6fmeNkk8AJ0VUldXpyoNMh2GJ/zcSEkAI6DDZ5LENAOyJxpTnz590oa5s8qTKgA6S0YoAJXJNh87AgzPffv2VaSaJSUlsVfqiRMnFNljbW2tcotnB4ipBA0mDtf4uBSSWgA6FVpfX68qmQrHXoYbWHl5udruI36ZKLCioqLI6qClpUVFCRJvyzZZQ0ODcovCvkmDoHH07t07sveb/OCCAKCzAnADA5A4xgIGQAE4GLI576ysrEyZNdhRYA+1S5cuUlpaqnrN4uJiBVTsbTwHYDU3Nwu9WVNTkxw/flztabODg9mIg5w5Z48hFZADdkCPIyiAS6LdLmwwFxwAMykQMAESwAJoAA8gAkzY3UgAjQTouB7wAEZAScI4TgK0gBcQA2ZADbgt2DJD1wIw7CZtn+dJAxaAntRlLw5bAxaAYWvUPs+TBv4FPx9+/GKBcAUAAAAASUVORK5CYII=;" vertex="1" parent="7">
                    <mxGeometry x="570" y="51.5" width="160" height="157" as="geometry"/>
                </mxCell>
                <mxCell id="16" value="&lt;font style=&quot;font-size: 24px;&quot;&gt;Please enter the radius of a sphere:&lt;/font&gt;" style="text;html=1;align=center;verticalAlign=middle;resizable=0;points=[];autosize=1;strokeColor=none;fillColor=none;" vertex="1" parent="7">
                    <mxGeometry x="30" y="178.5" width="390" height="40" as="geometry"/>
                </mxCell>
                <mxCell id="17" value="&lt;font style=&quot;font-size: 24px;&quot;&gt;Radius:&amp;nbsp;&lt;/font&gt;" style="text;html=1;align=center;verticalAlign=middle;resizable=0;points=[];autosize=1;strokeColor=none;fillColor=none;" vertex="1" parent="7">
                    <mxGeometry x="30" y="244" width="110" height="40" as="geometry"/>
                </mxCell>
                <mxCell id="18" value="Enter the radius in mm" style="rounded=1;whiteSpace=wrap;html=1;" vertex="1" parent="7">
                    <mxGeometry x="140" y="244" width="130" height="40" as="geometry"/>
                </mxCell>
                <mxCell id="20" value="&lt;font style=&quot;font-size: 24px;&quot;&gt;mm&lt;/font&gt;" style="text;html=1;align=center;verticalAlign=middle;resizable=0;points=[];autosize=1;strokeColor=none;fillColor=none;" vertex="1" parent="7">
                    <mxGeometry x="280" y="244" width="60" height="40" as="geometry"/>
                </mxCell>
                <mxCell id="22" value="&lt;font style=&quot;font-size: 18px;&quot;&gt;Calculate&lt;/font&gt;" style="rounded=1;whiteSpace=wrap;html=1;" vertex="1" parent="7">
                    <mxGeometry x="40" y="330" width="110" height="40" as="geometry"/>
                </mxCell>
                <mxCell id="23" value="&lt;font style=&quot;font-size: 24px;&quot;&gt;The volume of the sphere is: # mm&lt;sup&gt;3&lt;/sup&gt;&lt;/font&gt;" style="text;html=1;align=center;verticalAlign=middle;resizable=0;points=[];autosize=1;strokeColor=none;fillColor=none;" vertex="1" parent="7">
                    <mxGeometry x="40" y="390" width="390" height="50" as="geometry"/>
                </mxCell>
                <mxCell id="13" value="&lt;span style=&quot;font-size: 24px;&quot;&gt;3&lt;/span&gt;" style="text;html=1;align=center;verticalAlign=middle;resizable=0;points=[];autosize=1;strokeColor=none;fillColor=none;" vertex="1" parent="1">
                    <mxGeometry x="225" y="169" width="40" height="40" as="geometry"/>
                </mxCell>
            </root>
        </mxGraphModel>
    </diagram>
</mxfile>